<?xml version="1.0" encoding="UTF-8"?><svg id="Layer_2" xmlns="http://www.w3.org/2000/svg" xmlns:xlink="http://www.w3.org/1999/xlink" viewBox="0 0 207.292 150.846"><defs><style>.cls-1{fill:url(#linear-gradient);}.cls-2{fill:#041c2c;stroke-width:0px;}</style><linearGradient id="linear-gradient" x1="59.281" y1="27.705" x2="148.011" y2="27.705" gradientUnits="userSpaceOnUse"><stop offset="0" stop-color="#041c2c"/><stop offset=".846" stop-color="#5bc2e7"/></linearGradient></defs><g id="Layer_1-2"><path class="cls-2" d="M4.407,76.663c0-4.874-2.137-6.344-4.407-6.344v-.734h7.077c4.073,0,4.942,2.337,4.942,5.942v11.351c2.47-1.403,5.875-2.338,10.548-2.338,11.15,0,13.822,4.407,13.822,15.291v4.006c0,12.751-2.938,16.558-15.69,16.558-5.275,0-8.746-.935-10.951-2.94-1.268,1.538-3.004,2.537-5.34,2.537v-43.331ZM12.018,104.904c0,7.012.267,9.482,8.679,9.482,7.009,0,8.078-1.937,8.078-10.417v-2.335c0-8.747-1.335-11.083-8.011-11.083-5.809,0-8.746,2.67-8.746,4.94v9.413Z"/><path class="cls-2" d="M43.355,92.019c0-4.874-1.468-6.344-3.738-6.344v-.734h6.41c4.072,0,4.94,2.338,4.94,5.942v22.034c0,4.872,2.069,6.342,4.406,6.342v.734h-7.144c-4.072,0-4.874-2.336-4.874-5.94v-22.034ZM46.427,70.52c2.87,0,4.407,1.468,4.407,4.206,0,2.605-1.803,4.275-4.407,4.275-2.672,0-4.473-1.606-4.473-4.275,0-2.605,1.669-4.206,4.473-4.206"/><path class="cls-2" d="M59.595,92.019c0-4.874-1.469-6.344-3.74-6.344v-.734h6.41c3.205,0,4.407,1.469,4.808,3.94,2.536-2.67,4.807-3.94,8.545-3.94h6.543c-1.735,4.206-3.338,6.745-7.812,6.745-6.009,0-7.143,3.202-7.143,8.345v12.886c0,4.872,2.07,6.342,4.406,6.342v.734h-7.144c-4.074,0-4.873-2.336-4.873-5.94v-22.034Z"/><path class="cls-2" d="M83.389,101.7c0-13.352,2.939-17.159,15.756-17.159,3.673,0,6.475.401,8.61,1.069v-8.947c0-4.674-2.068-6.344-4.404-6.344v-.734h7.076c4.071,0,4.938,2.337,4.938,5.942v37.391c0,4.807,2.07,6.342,4.407,6.342v.734h-7.144c-2.67,0-4.005-1-4.539-2.736-2.469,1.868-6.005,3.138-10.881,3.138-11.15,0-13.819-4.408-13.819-15.29v-3.406ZM91,103.503c0,8.546,1.201,10.883,8.011,10.883,7.543,0,8.744-3.472,8.744-10.749v-5.141c0-5.475-1.067-7.944-8.008-7.944-7.679,0-8.747,1.937-8.747,10.816v2.136Z"/><path class="cls-2" d="M123.961,76.663c0-4.874-2.136-6.344-4.408-6.344v-.734h7.08c4.071,0,4.939,2.337,4.939,5.942v37.391c0,4.872,2.07,6.342,4.406,6.342v.734h-7.144c-4.073,0-4.873-2.336-4.873-5.94v-37.391Z"/><path class="cls-2" d="M140.743,92.019c0-4.874-1.468-6.344-3.737-6.344v-.734h6.409c4.072,0,4.941,2.338,4.941,5.942v22.034c0,4.872,2.069,6.342,4.407,6.342v.734h-7.144c-4.074,0-4.876-2.336-4.876-5.94v-22.034ZM143.816,70.52c2.87,0,4.405,1.468,4.405,4.206,0,2.605-1.802,4.275-4.405,4.275-2.672,0-4.474-1.606-4.474-4.275,0-2.605,1.669-4.206,4.474-4.206"/><path class="cls-2" d="M159.339,90.418h-6.543c1.203-3.806,4.139-5.207,6.61-5.409.668-8.481,4.608-15.423,13.288-15.423h6.273c-1.668,4.206-4.205,6.01-7.945,6.01-3.805,0-4.072,1.935-4.072,5.408v3.939h9.815c-1.669,4.339-4.806,5.476-7.545,5.476h-2.27v22.5c0,4.872,2.07,6.342,4.34,6.342v.734h-7.011c-4.072,0-4.94-2.336-4.94-5.94v-23.635Z"/><path class="cls-2" d="M177.782,101.233c0-12.686,3.004-16.693,15.488-16.693,11.618,0,14.021,5.007,14.021,10.884,0,8.146-4.14,9.746-15.023,9.746-2.736,0-5.075-.132-6.877-.267.066,6.944,1.203,9.082,8.679,9.082h12.821c-1.469,4.472-4.205,6.008-9.213,6.008h-4.341c-12.284,0-15.556-3.472-15.556-15.423v-3.337ZM191.669,99.897c5.341,0,8.078-.133,8.078-4.473,0-2.737-.869-4.873-6.674-4.873-6.344,0-7.614,1.468-7.681,9.147,1.67.133,3.74.2,6.277.2"/><path class="cls-2" d="M36.419,146.832h-8.054l-1.536,3.717h-4.114l7.731-17.346h3.965l7.757,17.346h-4.213l-1.536-3.717ZM35.156,143.784l-2.751-6.641-2.751,6.641h5.502Z"/><path class="cls-2" d="M43.846,142.917v-9.714h4.015v9.565c0,3.296,1.438,4.659,3.865,4.659,2.454,0,3.866-1.363,3.866-4.659v-9.565h3.965v9.714c0,5.105-2.924,7.93-7.855,7.93s-7.855-2.825-7.855-7.93Z"/><path class="cls-2" d="M63.924,148.839l1.363-3.023c1.462,1.065,3.643,1.809,5.725,1.809,2.379,0,3.345-.793,3.345-1.859,0-3.246-10.085-1.016-10.085-7.458,0-2.949,2.379-5.402,7.31-5.402,2.181,0,4.411.521,6.021,1.536l-1.238,3.048c-1.611-.917-3.271-1.363-4.808-1.363-2.379,0-3.296.892-3.296,1.982,0,3.196,10.086.991,10.086,7.359,0,2.899-2.404,5.377-7.36,5.377-2.75,0-5.525-.818-7.062-2.007Z"/><path class="cls-2" d="M86.546,136.474h-5.551v-3.271h15.116v3.271h-5.551v14.075h-4.015v-14.075Z"/><path class="cls-2" d="M110.705,150.549l-3.345-4.832h-3.692v4.832h-4.015v-17.346h7.509c4.634,0,7.533,2.404,7.533,6.294,0,2.602-1.313,4.51-3.568,5.476l3.89,5.576h-4.312ZM106.939,136.474h-3.271v6.046h3.271c2.453,0,3.692-1.14,3.692-3.023,0-1.908-1.239-3.023-3.692-3.023Z"/><path class="cls-2" d="M132.292,146.832h-8.054l-1.536,3.717h-4.114l7.731-17.346h3.965l7.757,17.346h-4.213l-1.536-3.717ZM131.029,143.784l-2.751-6.641-2.751,6.641h5.502Z"/><path class="cls-2" d="M141.524,133.203h4.015v14.075h8.697v3.271h-12.712v-17.346Z"/><path class="cls-2" d="M157.775,133.203h4.015v17.346h-4.015v-17.346Z"/><path class="cls-2" d="M178.851,146.832h-8.054l-1.536,3.717h-4.114l7.731-17.346h3.965l7.757,17.346h-4.213l-1.536-3.717ZM177.587,143.784l-2.751-6.641-2.751,6.641h5.502Z"/><path class="cls-1" d="M91.879,55.41c11.923,0,22.327-5.714,27.866-14.198-5.403,3.032-11.62,5.858-19.881,5.858-5.576,0-10.969-1.176-16.484-3.593-4.64-2.035-8.549-4.602-11.689-6.664-1.195-.785-2.323-1.527-3.324-2.125-3.217-1.928-6.043-2.913-8.265-3.401,2.268,13.645,15.631,24.123,31.777,24.123M110.563,26.109c-13.704,10.806-31.22,10.118-31.22,10.118,3.219,1.758,19.737,14.951,42.424-1.954,5.318-3.962,8.715-6.998,13.261-9.474,7.125-3.879,12.982-4.201,12.982-4.201-5.202-2.484-9.964-4.275-15.158-4.275-6.278-.001-13.191,2.615-22.289,9.786M59.449,11.706s-2.575,15.519,12.435,19.422c9.321,2.424,20.323,3.324,38.292-10.165,11.656-8.751,17.415-8.502,17.415-8.502-12.785-6.558-20.597-4.515-32.304,4.033-8.624,6.296-14.89,10.998-19.792,10.998-2.522,0-4.825-1.019-5.614-3.226-1.265-3.536-.299-9.279,1.745-11.13,2.379-2.153,7.468-2.203,11.318-1.865,2.496.217,4.397.599,4.414.602.137.03.278-.059.307-.198.033-.138-.049-.276-.184-.314-.054-.015-5.372-1.542-8.33-5.742-3.454-4.902-7.112-5.41-7.474-5.448-.085-.02-.404-.093-.893-.135-.239-.02-.507-.034-.799-.034-3.013,0-9.167,1.324-10.536,11.706"/></g></svg>