<?xml version="1.0" encoding="UTF-8"?><svg id="Layer_2" xmlns="http://www.w3.org/2000/svg" xmlns:xlink="http://www.w3.org/1999/xlink" viewBox="0 0 321.342 87.013"><defs><style>.cls-1{fill:url(#linear-gradient);}.cls-2{fill:#041c2c;stroke-width:0px;}</style><linearGradient id="linear-gradient" x1="0" y1="46.161" x2="105.889" y2="46.161" gradientUnits="userSpaceOnUse"><stop offset="0" stop-color="#041c2c"/><stop offset=".846" stop-color="#5bc2e7"/></linearGradient></defs><g id="Layer_1-2"><path class="cls-2" d="M117.955,7.095c0-4.886-2.143-6.359-4.418-6.359v-.736h7.094c4.083,0,4.954,2.343,4.954,5.957v11.379c2.476-1.407,5.89-2.344,10.574-2.344,11.177,0,13.856,4.418,13.856,15.329v4.016c0,12.783-2.945,16.599-15.729,16.599-5.289,0-8.767-.937-10.978-2.947-1.271,1.541-3.011,2.544-5.353,2.544V7.095ZM125.586,35.407c0,7.029.267,9.505,8.701,9.505,7.027,0,8.098-1.941,8.098-10.442v-2.341c0-8.768-1.338-11.111-8.031-11.111-5.823,0-8.767,2.676-8.767,4.953v9.436Z"/><path class="cls-2" d="M157,22.49c0-4.886-1.472-6.359-3.747-6.359v-.736h6.426c4.082,0,4.953,2.344,4.953,5.957v22.088c0,4.884,2.074,6.357,4.417,6.357v.736h-7.162c-4.082,0-4.886-2.342-4.886-5.955v-22.088ZM160.08.938c2.877,0,4.418,1.472,4.418,4.217,0,2.611-1.808,4.285-4.418,4.285-2.678,0-4.484-1.61-4.484-4.285,0-2.611,1.673-4.217,4.484-4.217"/><path class="cls-2" d="M173.28,22.49c0-4.886-1.473-6.359-3.749-6.359v-.736h6.426c3.213,0,4.418,1.473,4.82,3.949,2.543-2.676,4.819-3.949,8.566-3.949h6.559c-1.739,4.217-3.346,6.761-7.831,6.761-6.023,0-7.161,3.21-7.161,8.366v12.918c0,4.884,2.075,6.357,4.417,6.357v.736h-7.162c-4.084,0-4.885-2.342-4.885-5.955v-22.088Z"/><path class="cls-2" d="M197.133,32.195c0-13.385,2.946-17.202,15.795-17.202,3.682,0,6.491.402,8.631,1.072V7.095c0-4.685-2.073-6.359-4.415-6.359V0h7.093c4.081,0,4.951,2.343,4.951,5.957v37.483c0,4.819,2.075,6.357,4.418,6.357v.736h-7.162c-2.676,0-4.015-1.002-4.551-2.743-2.475,1.873-6.02,3.146-10.908,3.146-11.177,0-13.854-4.419-13.854-15.328v-3.414ZM204.763,34.002c0,8.567,1.204,10.91,8.031,10.91,7.562,0,8.765-3.481,8.765-10.776v-5.154c0-5.489-1.07-7.964-8.028-7.964-7.698,0-8.768,1.941-8.768,10.842v2.142Z"/><path class="cls-2" d="M237.806,7.095c0-4.886-2.142-6.359-4.419-6.359V0h7.097c4.081,0,4.952,2.343,4.952,5.957v37.483c0,4.884,2.075,6.357,4.417,6.357v.736h-7.162c-4.083,0-4.885-2.342-4.885-5.955V7.095Z"/><path class="cls-2" d="M254.629,22.49c0-4.886-1.472-6.359-3.746-6.359v-.736h6.425c4.082,0,4.954,2.344,4.954,5.957v22.088c0,4.884,2.074,6.357,4.418,6.357v.736h-7.162c-4.084,0-4.888-2.342-4.888-5.955v-22.088ZM257.71.938c2.877,0,4.416,1.472,4.416,4.217,0,2.611-1.807,4.285-4.416,4.285-2.679,0-4.485-1.61-4.485-4.285,0-2.611,1.673-4.217,4.485-4.217"/><path class="cls-2" d="M273.27,20.884h-6.559c1.205-3.816,4.149-5.22,6.627-5.422C274.007,6.96,277.957,0,286.659,0h6.289c-1.672,4.217-4.216,6.024-7.965,6.024-3.815,0-4.082,1.939-4.082,5.421v3.948h9.839c-1.673,4.349-4.818,5.49-7.564,5.49h-2.275v22.556c0,4.884,2.075,6.357,4.35,6.357v.736h-7.028c-4.082,0-4.953-2.342-4.953-5.955v-23.694Z"/><path class="cls-2" d="M291.76,31.727c0-12.718,3.011-16.734,15.527-16.734,11.647,0,14.056,5.019,14.056,10.911,0,8.166-4.15,9.771-15.06,9.771-2.743,0-5.087-.133-6.894-.267.066,6.962,1.206,9.104,8.701,9.104h12.852c-1.473,4.483-4.216,6.022-9.236,6.022h-4.351c-12.314,0-15.594-3.481-15.594-15.461v-3.345ZM305.681,30.388c5.354,0,8.098-.134,8.098-4.484,0-2.744-.871-4.885-6.691-4.885-6.359,0-7.633,1.472-7.7,9.169,1.674.134,3.749.2,6.293.2"/><path class="cls-2" d="M131.464,82.781h-8.49l-1.619,3.918h-4.337l8.15-18.286h4.18l8.177,18.286h-4.441l-1.62-3.918ZM130.132,79.567l-2.9-7.001-2.9,7.001h5.8Z"/><path class="cls-2" d="M139.912,78.653v-10.24h4.232v10.083c0,3.474,1.515,4.911,4.075,4.911,2.586,0,4.075-1.437,4.075-4.911v-10.083h4.18v10.24c0,5.381-3.083,8.359-8.281,8.359s-8.281-2.978-8.281-8.359Z"/><path class="cls-2" d="M160.761,84.897l1.437-3.187c1.541,1.123,3.84,1.907,6.034,1.907,2.508,0,3.526-.836,3.526-1.959,0-3.422-10.632-1.071-10.632-7.863,0-3.109,2.508-5.695,7.706-5.695,2.299,0,4.65.549,6.348,1.62l-1.306,3.213c-1.698-.967-3.448-1.437-5.068-1.437-2.508,0-3.474.94-3.474,2.09,0,3.37,10.632,1.045,10.632,7.758,0,3.057-2.534,5.669-7.759,5.669-2.899,0-5.825-.862-7.445-2.116Z"/><path class="cls-2" d="M184.387,71.861h-5.852v-3.448h15.935v3.448h-5.852v14.838h-4.232v-14.838Z"/><path class="cls-2" d="M209.797,86.699l-3.527-5.094h-3.892v5.094h-4.232v-18.286h7.916c4.885,0,7.941,2.534,7.941,6.635,0,2.743-1.384,4.754-3.762,5.773l4.101,5.878h-4.545ZM205.826,71.861h-3.448v6.374h3.448c2.586,0,3.892-1.202,3.892-3.187,0-2.011-1.306-3.187-3.892-3.187Z"/><path class="cls-2" d="M231.662,82.781h-8.49l-1.62,3.918h-4.336l8.15-18.286h4.18l8.176,18.286h-4.441l-1.62-3.918ZM230.329,79.567l-2.899-7.001-2.899,7.001h5.799Z"/><path class="cls-2" d="M241.233,68.413h4.231v14.838h9.169v3.448h-13.401v-18.286Z"/><path class="cls-2" d="M258.359,68.413h4.231v18.286h-4.231v-18.286Z"/><path class="cls-2" d="M280.518,82.781h-8.49l-1.62,3.918h-4.336l8.15-18.286h4.18l8.176,18.286h-4.441l-1.62-3.918ZM279.186,79.567l-2.899-7.001-2.899,7.001h5.799Z"/><path class="cls-1" d="M38.902,79.224c14.229,0,26.645-6.819,33.255-16.943-6.447,3.618-13.867,6.99-23.725,6.99-6.655,0-13.09-1.403-19.672-4.288-5.537-2.428-10.202-5.492-13.95-7.953-1.426-.937-2.773-1.823-3.967-2.536-3.839-2.301-7.211-3.476-9.863-4.058,2.706,16.283,18.654,28.788,37.922,28.788M61.2,44.256c-16.354,12.896-37.257,12.074-37.257,12.074,3.841,2.098,23.554,17.842,50.628-2.332,6.346-4.728,10.4-8.351,15.825-11.305,8.503-4.629,15.492-5.014,15.492-5.014-6.208-2.964-11.89-5.101-18.09-5.101-7.493-.001-15.742,3.121-26.599,11.678M.2,27.068s-3.073,18.52,14.84,23.177c11.123,2.892,24.253,3.967,45.697-12.131,13.91-10.443,20.782-10.146,20.782-10.146-15.258-7.826-24.58-5.389-38.551,4.812-10.291,7.514-17.769,13.124-23.619,13.124-3.01,0-5.758-1.215-6.699-3.85-1.509-4.22-.357-11.074,2.083-13.282,2.839-2.569,8.912-2.63,13.507-2.226,2.979.259,5.247.714,5.268.718.163.036.332-.07.366-.236.04-.164-.058-.329-.22-.375-.064-.018-6.41-1.84-9.941-6.852-4.121-5.85-8.487-6.456-8.919-6.502-.101-.023-.482-.111-1.066-.162-.285-.023-.605-.041-.954-.041-3.596,0-10.94,1.579-12.574,13.97"/></g></svg>